<svg width="16" height="17" viewBox="0 0 16 17" fill="none" xmlns="http://www.w3.org/2000/svg">
<path fill-rule="evenodd" clip-rule="evenodd" d="M11.5517 13.8719C10.3998 14.587 9.03988 15 7.58318 15C3.42976 15 0.0627441 11.6421 0.0627441 7.5C0.0627441 3.35786 3.42976 0 7.58318 0C11.7366 0 15.1036 3.35786 15.1036 7.5C15.1036 9.46568 14.3453 11.2547 13.1046 12.5921L15.347 14.8284C15.7385 15.2189 15.7385 15.8521 15.347 16.2426C14.9554 16.6331 14.3205 16.6331 13.9289 16.2426L11.5517 13.8719ZM14.1008 7.5C14.1008 11.0899 11.1827 14 7.58311 14C3.98347 14 1.0654 11.0899 1.0654 7.5C1.0654 3.91015 3.98347 1 7.58311 1C11.1827 1 14.1008 3.91015 14.1008 7.5Z" fill="black" fill-opacity="0.35"/>
</svg>
